<svg id="Layer_1" data-name="Layer 1" xmlns="http://www.w3.org/2000/svg" viewBox="0 0 251.83 143.67"><defs><style>.cls-1{fill:#231f20;}.cls-2{fill:none;stroke:#f1f2f2;stroke-miterlimit:10;stroke-width:4px;}.cls-3{fill:#fff;}</style></defs><rect class="cls-1" width="251.83" height="143.67"/><polyline class="cls-2" points="81.25 35.24 24.97 35.24 24.97 97.99 80.84 97.99"/><polyline class="cls-2" points="166.28 99.17 222.53 99.17 222.53 36.45 166.68 36.45"/><path class="cls-3" d="M78.38,81.38h-4v4.21h-21v-4H49.22V77.39H57.6v4H70V73.24H53.44V69H49.22V60.65h4V56.43H70v4h4.22v4.21H66v-4H57.6v8.08H74.23V73h4.15Z" transform="translate(-0.17 -0.14)"/><path class="cls-3" d="M104.32,60.47h-8.2V85.59H87.75V60.65H79.32V56.43h25Z" transform="translate(-0.17 -0.14)"/><path class="cls-3" d="M142.79,85.59h-8.37V77.28H122v8.31h-8.37V64.81h4V60.65h4.27V56.43h12.54v4h4.21v4.15h4.16Zm-8.37-12.53V64.57h-4.16V60.65H126v4.16h-4v8.25Z" transform="translate(-0.17 -0.14)"/><path class="cls-3" d="M175,73.06h-8.37v4h4.21v4.28H175v4.21H162.58V81.67h-4.16V77.28h-4.21v8.31h-8.38V56.43h25v4H175Zm-8.37-4.21v-8.2H154.21V73.06h8.37V68.85Z" transform="translate(-0.17 -0.14)"/><path class="cls-3" d="M200.93,60.47h-8.2V85.59h-8.37V60.65h-8.43V56.43h25Z" transform="translate(-0.17 -0.14)"/></svg>