<svg id="Layer_1" data-name="Layer 1" xmlns="http://www.w3.org/2000/svg" viewBox="0 0 251.83 144.26"><defs><style>.cls-1{fill:#231f20;}.cls-2{fill:none;stroke:#f2f2f2;stroke-miterlimit:10;stroke-width:4px;}.cls-3{fill:#fff;}</style></defs><rect class="cls-1" width="251.83" height="144.26"/><polyline class="cls-2" points="83.21 40.2 32.95 40.2 32.95 96.37 82.85 96.37"/><polyline class="cls-2" points="164.88 97.52 216.24 97.52 216.24 40.1 165.25 40.1"/><path class="cls-3" d="M86.41,77.21H83.15v3.46H66V77.41H62.52V73.94h6.86v3.27H79.55V70.52H66V67.09H62.52V60.18h3.26V56.71H79.55V60H83v3.46H76.25V60.18H69.38v6.63H83v3.52h3.4Z" transform="translate(-0.17 0.09)"/><path class="cls-3" d="M107.68,60.08H101V80.67H94.09V60.18H87.18V56.71h20.5Z" transform="translate(-0.17 0.09)"/><path class="cls-3" d="M139.2,80.67h-6.86V73.84H122.16v6.83h-6.85v-17h3.25V60.18h3.52V56.71h10.27V60h3.45v3.42h3.41Zm-6.86-10.29v-7h-3.41V60.18h-3.5V63.6h-3.27v6.78Z" transform="translate(-0.17 0.09)"/><path class="cls-3" d="M165.59,70.38h-6.86V73.7h3.45v3.51h3.41v3.46H155.43V77.45H152V73.84h-3.46v6.83H141.7v-24h20.48v3.37h3.41Zm-6.86-3.47V60.18H148.56v10.2h6.87V66.91Z" transform="translate(-0.17 0.09)"/><path class="cls-3" d="M186.86,60.08h-6.72V80.67h-6.87V60.18h-6.91V56.71h20.5Z" transform="translate(-0.17 0.09)"/></svg>